<?xml version="1.0" encoding="UTF-8" standalone="no"?>
<!-- Created with Inkscape (http://www.inkscape.org/) -->

<svg
   xmlns:dc="http://purl.org/dc/elements/1.1/"
   xmlns:cc="http://creativecommons.org/ns#"
   xmlns:rdf="http://www.w3.org/1999/02/22-rdf-syntax-ns#"
   xmlns:svg="http://www.w3.org/2000/svg"
   xmlns="http://www.w3.org/2000/svg"
   xmlns:sodipodi="http://sodipodi.sourceforge.net/DTD/sodipodi-0.dtd"
   xmlns:inkscape="http://www.inkscape.org/namespaces/inkscape"
   width="130"
   height="60"
   viewBox="0 0 130 60.000001"
   id="svg4136"
   version="1.1"
   inkscape:version="0.91 r13725"
   sodipodi:docname="yukei.svg">
  <defs
     id="defs4138" />
  <sodipodi:namedview
     id="base"
     pagecolor="#ffffff"
     bordercolor="#666666"
     borderopacity="1.0"
     inkscape:pageopacity="1"
     inkscape:pageshadow="2"
     inkscape:zoom="4.9170839"
     inkscape:cx="67.91526"
     inkscape:cy="5.8921503"
     inkscape:document-units="px"
     inkscape:current-layer="layer2"
     showgrid="false"
     units="px"
     inkscape:window-width="1920"
     inkscape:window-height="1025"
     inkscape:window-x="0"
     inkscape:window-y="27"
     inkscape:window-maximized="1" />
  <metadata
     id="metadata4141">
    <rdf:RDF>
      <cc:Work
         rdf:about="">
        <dc:format>image/svg+xml</dc:format>
        <dc:type
           rdf:resource="http://purl.org/dc/dcmitype/StillImage" />
        <dc:title></dc:title>
      </cc:Work>
    </rdf:RDF>
  </metadata>
  <g
     inkscape:label="Layer 1"
     inkscape:groupmode="layer"
     id="layer1">
    <rect
       style="opacity:1;fill:#000000;fill-opacity:1;fill-rule:nonzero;stroke:none;stroke-width:3;stroke-linecap:butt;stroke-linejoin:bevel;stroke-miterlimit:0;stroke-dasharray:none;stroke-opacity:1"
       id="rect4147"
       width="130"
       height="60"
       x="0"
       y="0" />
  </g>
  <g
     inkscape:groupmode="layer"
     id="layer2"
     inkscape:label="Layer 2">
    <g
       style="font-style:normal;font-weight:normal;font-size:40px;line-height:125%;font-family:Sans;letter-spacing:0px;word-spacing:0px;fill:#000000;fill-opacity:1;stroke:none;stroke-width:1px;stroke-linecap:butt;stroke-linejoin:miter;stroke-opacity:1"
       id="text4690">
      <path
         d="m 29.05082,23.787498 q 0.1925,0 0.3325,0.14 0.14,0.14 0.14,0.3325 0,0.0875 -0.035,0.1575 l -4.1475,7.2975 0,3.85 q 0,0.1925 -0.14,0.3325 -0.14,0.14 -0.3325,0.14 l -1.4,0 q -0.1925,0 -0.3325,-0.14 -0.14,-0.14 -0.14,-0.3325 l 0,-3.85 -4.1475,-7.2975 q -0.035,-0.07 -0.035,-0.1575 0,-0.1925 0.14,-0.3325 0.14,-0.14 0.3325,-0.14 l 1.3125,0 q 0.2975,0 0.4725,0.1575 0.1925,0.14 0.2625,0.28 l 2.835,4.9525 2.835,-4.9525 q 0.07,-0.14 0.245,-0.28 0.1925,-0.1575 0.49,-0.1575 l 1.3125,0 z"
         style="font-style:normal;font-variant:normal;font-weight:500;font-stretch:normal;font-size:17.5px;font-family:rubik;-inkscape-font-specification:'rubik Medium';letter-spacing:0.5px;fill:#ffffff;fill-opacity:1"
         id="path4146" />
      <path
         d="m 41.295234,23.787498 q 0.1925,0 0.3325,0.14 0.14,0.14 0.14,0.3325 l 0,7.175 q 0,2.205 -1.295,3.5 -1.295,1.2775 -3.7275,1.2775 -2.45,0 -3.7275,-1.2775 -1.2775,-1.2775 -1.2775,-3.5 l 0,-7.175 q 0,-0.1925 0.14,-0.3325 0.14,-0.14 0.3325,-0.14 l 1.4175,0 q 0.1925,0 0.3325,0.14 0.14,0.14 0.14,0.3325 l 0,7.0875 q 0,1.3825 0.7,2.03 0.7,0.6475 1.9425,0.6475 1.2425,0 1.96,-0.6475 0.7175,-0.6475 0.7175,-2.03 l 0,-7.0875 q 0,-0.1925 0.14,-0.3325 0.14,-0.14 0.3325,-0.14 l 1.4,0 z"
         style="font-style:normal;font-variant:normal;font-weight:500;font-stretch:normal;font-size:17.5px;font-family:rubik;-inkscape-font-specification:'rubik Medium';letter-spacing:0.5px;fill:#ffffff;fill-opacity:1"
         id="path4148" />
      <path
         d="m 54.198359,35.302498 q 0.1225,0.14 0.1225,0.2625 0,0.1925 -0.14,0.3325 -0.14,0.14 -0.3325,0.14 l -1.6625,0 q -0.2975,0 -0.4725,-0.105 -0.1575,-0.1225 -0.3325,-0.2975 l -4.1125,-4.6375 0,4.5675 q 0,0.1925 -0.14,0.3325 -0.14,0.14 -0.3325,0.14 l -1.4175,0 q -0.1925,0 -0.3325,-0.14 -0.14,-0.14 -0.14,-0.3325 l 0,-11.305 q 0,-0.1925 0.14,-0.3325 0.14,-0.14 0.3325,-0.14 l 1.4175,0 q 0.1925,0 0.3325,0.14 0.14,0.14 0.14,0.3325 l 0,4.1125 3.815,-4.2 q 0.175,-0.1925 0.35,-0.28 0.175,-0.105 0.4375,-0.105 l 1.61,0 q 0.1925,0 0.3325,0.14 0.14,0.14 0.14,0.3325 0,0.1225 -0.105,0.2625 l -4.7075,5.1275 5.0575,5.6525 z"
         style="font-style:normal;font-variant:normal;font-weight:500;font-stretch:normal;font-size:17.5px;font-family:rubik;-inkscape-font-specification:'rubik Medium';letter-spacing:0.5px;fill:#ffffff;fill-opacity:1"
         id="path4150" />
      <path
         d="m 58.774219,30.944998 5.2675,0 q 0.1925,0 0.3325,-0.14 0.14,-0.14 0.14,-0.3325 l 0,-1.2425 q 0,-0.1925 -0.14,-0.3325 -0.14,-0.14 -0.3325,-0.14 l -5.2675,0 0,-2.7825 5.6525,0 q 0.1925,0 0.3325,-0.14 0.14,-0.14 0.14,-0.3325 l 0,-1.2425 q 0,-0.1925 -0.14,-0.3325 -0.14,-0.14 -0.3325,-0.14 l -7.5425,0 q -0.1925,0 -0.3325,0.14 -0.14,0.14 -0.14,0.3325 l 0,11.305 q 0,0.1925 0.14,0.3325 0.14,0.14 0.3325,0.14 l 7.6825,0 q 0.1925,0 0.3325,-0.14 0.14,-0.14 0.14,-0.3325 l 0,-1.2425 q 0,-0.1925 -0.14,-0.3325 -0.14,-0.14 -0.3325,-0.14 l -5.7925,0 0,-2.905 z"
         style="font-style:normal;font-variant:normal;font-weight:500;font-stretch:normal;font-size:17.5px;font-family:rubik;-inkscape-font-specification:'rubik Medium';letter-spacing:0.5px;fill:#ffffff;fill-opacity:1"
         id="path4152" />
      <path
         d="m 68.185,36.037498 q -0.1925,0 -0.3325,-0.14 -0.14,-0.14 -0.14,-0.3325 l 0,-11.305 q 0,-0.1925 0.14,-0.3325 0.14,-0.14 0.3325,-0.14 l 1.4175,0 q 0.1925,0 0.3325,0.14 0.14,0.14 0.14,0.3325 l 0,11.305 q 0,0.1925 -0.14,0.3325 -0.14,0.14 -0.3325,0.14 l -1.4175,0 z"
         style="font-style:normal;font-variant:normal;font-weight:500;font-stretch:normal;font-size:17.5px;font-family:rubik;-inkscape-font-specification:'rubik Medium';letter-spacing:0.5px;fill:#ffffff;fill-opacity:1"
         id="path4154" />
      <path
         d="m 75.037773,33.377498 q 0.1925,0 0.3325,0.14 0.14,0.14 0.14,0.3325 l 0,1.715 q 0,0.1925 -0.14,0.3325 -0.14,0.14 -0.3325,0.14 l -1.6275,0 q -0.1925,0 -0.3325,-0.14 -0.14,-0.14 -0.14,-0.3325 l 0,-1.715 q 0,-0.1925 0.14,-0.3325 0.14,-0.14 0.3325,-0.14 l 1.6275,0 z"
         style="font-style:normal;font-variant:normal;font-weight:500;font-stretch:normal;font-size:17.5px;font-family:rubik;-inkscape-font-specification:'rubik Medium';letter-spacing:0.5px;fill:#ffffff;fill-opacity:1"
         id="path4156" />
      <path
         d="m 86.330351,36.037498 q -0.4025,0 -0.6825,-0.4025 l -4.9,-7.28 0,7.21 q 0,0.1925 -0.14,0.3325 -0.14,0.14 -0.3325,0.14 l -1.4175,0 q -0.1925,0 -0.3325,-0.14 -0.14,-0.14 -0.14,-0.3325 l 0,-11.305 q 0,-0.1925 0.14,-0.3325 0.14,-0.14 0.3325,-0.14 l 1.225,0 q 0.4025,0 0.6825,0.4025 l 4.9,7.28 0,-7.21 q 0,-0.1925 0.14,-0.3325 0.14,-0.14 0.3325,-0.14 l 1.4175,0 q 0.1925,0 0.3325,0.14 0.14,0.14 0.14,0.3325 l 0,11.305 q 0,0.1925 -0.14,0.3325 -0.14,0.14 -0.3325,0.14 l -1.225,0 z"
         style="font-style:normal;font-variant:normal;font-weight:500;font-stretch:normal;font-size:17.5px;font-family:rubik;-inkscape-font-specification:'rubik Medium';letter-spacing:0.5px;fill:#ffffff;fill-opacity:1"
         id="path4158" />
      <path
         d="m 93.620898,30.944998 5.2675,0 q 0.1925,0 0.3325,-0.14 0.14,-0.14 0.14,-0.3325 l 0,-1.2425 q 0,-0.1925 -0.14,-0.3325 -0.14,-0.14 -0.3325,-0.14 l -5.2675,0 0,-2.7825 5.6525,0 q 0.1925,0 0.3325,-0.14 0.14,-0.14 0.14,-0.3325 l 0,-1.2425 q 0,-0.1925 -0.14,-0.3325 -0.14,-0.14 -0.3325,-0.14 l -7.5425,0 q -0.1925,0 -0.3325,0.14 -0.14,0.14 -0.14,0.3325 l 0,11.305 q 0,0.1925 0.14,0.3325 0.14,0.14 0.3325,0.14 l 7.6825,0 q 0.1925,0 0.3325,-0.14 0.14,-0.14 0.14,-0.3325 l 0,-1.2425 q 0,-0.1925 -0.14,-0.3325 -0.14,-0.14 -0.3325,-0.14 l -5.7925,0 0,-2.905 z"
         style="font-style:normal;font-variant:normal;font-weight:500;font-stretch:normal;font-size:17.5px;font-family:rubik;-inkscape-font-specification:'rubik Medium';letter-spacing:0.5px;fill:#ffffff;fill-opacity:1"
         id="path4160" />
      <path
         d="m 110.71418,23.787498 q 0.1925,0 0.3325,0.14 0.14,0.14 0.14,0.3325 l 0,1.2425 q 0,0.1925 -0.14,0.3325 -0.14,0.14 -0.3325,0.14 l -3.15,0 0,9.59 q 0,0.1925 -0.14,0.3325 -0.14,0.14 -0.3325,0.14 l -1.4175,0 q -0.1925,0 -0.3325,-0.14 -0.14,-0.14 -0.14,-0.3325 l 0,-9.59 -3.15,0 q -0.1925,0 -0.3325,-0.14 -0.14,-0.14 -0.14,-0.3325 l 0,-1.2425 q 0,-0.1925 0.14,-0.3325 0.14,-0.14 0.3325,-0.14 l 8.6625,0 z"
         style="font-style:normal;font-variant:normal;font-weight:500;font-stretch:normal;font-size:17.5px;font-family:rubik;-inkscape-font-specification:'rubik Medium';letter-spacing:0.5px;fill:#ffffff;fill-opacity:1"
         id="path4162" />
    </g>
  </g>
</svg>
